<svg xmlns="http://www.w3.org/2000/svg" viewBox="0 0 640 360" role="img" aria-labelledby="title desc">
  <title id="title">Capital city landmark illustration</title>
  <desc id="desc">A stylized skyline and map pin for capital city trivia questions.</desc>
  <defs>
    <linearGradient id="sky" x1="0%" y1="0%" x2="100%" y2="100%">
      <stop offset="0%" stop-color="#0f2747"/>
      <stop offset="55%" stop-color="#245e8f"/>
      <stop offset="100%" stop-color="#7ac5ff"/>
    </linearGradient>
    <linearGradient id="pin" x1="0%" y1="0%" x2="100%" y2="100%">
      <stop offset="0%" stop-color="#ffd166"/>
      <stop offset="100%" stop-color="#ff7b54"/>
    </linearGradient>
  </defs>
  <rect width="640" height="360" fill="url(#sky)"/>
  <circle cx="112" cy="78" r="34" fill="#fff1b8" opacity="0.95"/>
  <path d="M0 272C92 246 160 230 244 230c94 0 142 28 222 28 66 0 112-14 174-40v142H0Z" fill="#1c4066"/>
  <path d="M0 298C84 280 162 274 236 282c80 8 132 30 214 30 74 0 122-18 190-42v90H0Z" fill="#163454"/>
  <g fill="#0d2239">
    <rect x="106" y="154" width="34" height="96" rx="4"/>
    <rect x="164" y="126" width="42" height="124" rx="4"/>
    <rect x="224" y="170" width="52" height="80" rx="4"/>
    <rect x="292" y="138" width="48" height="112" rx="4"/>
    <rect x="360" y="116" width="58" height="134" rx="4"/>
    <rect x="436" y="156" width="44" height="94" rx="4"/>
    <rect x="498" y="184" width="40" height="66" rx="4"/>
  </g>
  <path d="M320 52c-43 0-78 34-78 76 0 58 78 150 78 150s78-92 78-150c0-42-35-76-78-76Z" fill="url(#pin)"/>
  <circle cx="320" cy="128" r="28" fill="#fff8e8"/>
  <circle cx="320" cy="128" r="12" fill="#ff9b71"/>
</svg>
