<svg xmlns="http://www.w3.org/2000/svg" viewBox="0 0 640 520" role="img" aria-labelledby="geoTitle geoDesc">
  <title id="geoTitle">Geo Challenge hero illustration</title>
  <desc id="geoDesc">A stylized globe with map markers, orbit rings, and a trophy.</desc>
  <defs>
    <linearGradient id="bgGlow" x1="0%" x2="100%" y1="0%" y2="100%">
      <stop offset="0%" stop-color="#1ea7a1" stop-opacity="0.75"/>
      <stop offset="100%" stop-color="#f0b44b" stop-opacity="0.55"/>
    </linearGradient>
    <linearGradient id="planetFill" x1="0%" x2="100%" y1="0%" y2="100%">
      <stop offset="0%" stop-color="#174953"/>
      <stop offset="100%" stop-color="#0a2329"/>
    </linearGradient>
  </defs>

  <ellipse cx="320" cy="262" rx="240" ry="170" fill="url(#bgGlow)" opacity="0.25"/>
  <ellipse cx="320" cy="262" rx="218" ry="148" fill="none" stroke="#9de7de" stroke-opacity="0.22" stroke-width="2"/>
  <ellipse cx="320" cy="262" rx="178" ry="122" fill="none" stroke="#9de7de" stroke-opacity="0.18" stroke-width="2"/>

  <circle cx="320" cy="250" r="132" fill="url(#planetFill)" stroke="#8edbd3" stroke-opacity="0.45" stroke-width="4"/>
  <path d="M246 170c20-22 36-31 62-35 28-4 60 6 83 24 8 6 23 8 33 5 7-3 15 6 11 14-10 21-38 25-44 52-6 27 9 36 8 53-1 17-23 29-45 26-22-3-40 4-54 21-14 17-44 17-55-1-11-18-10-35-28-49-18-14-33-41-24-58 7-12 27-20 32-35 5-15 9-9 21-17z" fill="#1a6975" opacity="0.88"/>
  <path d="M264 202c12 4 23-8 29-18 7-11 11-6 27-5 17 2 26-10 35-14" fill="none" stroke="#b9fff7" stroke-opacity="0.25" stroke-width="9" stroke-linecap="round"/>
  <path d="M223 238c28 17 58 26 73 50 12 19 7 29 19 47" fill="none" stroke="#b9fff7" stroke-opacity="0.18" stroke-width="9" stroke-linecap="round"/>

  <path d="M400 124c26 0 48 22 48 48 0 28-24 48-48 78-24-30-48-50-48-78 0-26 22-48 48-48z" fill="#f36f63"/>
  <circle cx="400" cy="171" r="18" fill="#fff3ef"/>

  <path d="M208 262c22 0 40 18 40 40 0 23-20 39-40 64-20-25-40-41-40-64 0-22 18-40 40-40z" fill="#f0b44b"/>
  <circle cx="208" cy="301" r="14" fill="#fff6dd"/>

  <path d="M320 102c14 0 26 12 26 26 0 16-13 27-26 46-13-19-26-30-26-46 0-14 12-26 26-26z" fill="#1ea7a1"/>
  <circle cx="320" cy="127" r="10" fill="#e7fffc"/>

  <path d="M456 346l26 18-21 55h-45l-19-55 24-18z" fill="#f0b44b"/>
  <path d="M417 350h44c16 0 30-13 31-30l4-44h-24c-9 0-17-6-18-15l-2-13H429l-2 13c-1 9-9 15-18 15h-24l4 44c1 17 15 30 32 30z" fill="#ffe0a3"/>
  <path d="M408 276c-15 0-27 12-27 27v5c0 26 21 47 47 47h22" fill="none" stroke="#f0b44b" stroke-width="10" stroke-linecap="round"/>
  <path d="M489 276c15 0 27 12 27 27v5c0 26-21 47-47 47h-22" fill="none" stroke="#f0b44b" stroke-width="10" stroke-linecap="round"/>

  <path d="M154 123c65-58 124-74 196-77 62-3 117 10 171 45" fill="none" stroke="#a7efe9" stroke-opacity="0.35" stroke-width="3" stroke-dasharray="8 12"/>
  <path d="M116 312c44 78 117 131 213 142 79 9 153-9 212-56" fill="none" stroke="#ffe0a3" stroke-opacity="0.28" stroke-width="3" stroke-dasharray="10 14"/>
</svg>
